<svg width="95" height="62" viewBox="0 0 95 62" fill="none" xmlns="http://www.w3.org/2000/svg">
<path d="M50.283 0.0744209C47.8887 0.219418 45.5659 0.690659 42.5998 1.63313C39.0263 2.75686 35.548 4.59348 32.9513 6.70801C31.0573 8.24256 28.5915 10.8283 27.2217 12.7012L25.9709 14.3928L21.099 14.4653C18.395 14.5016 16.0246 14.5862 15.7863 14.6586C15.2384 14.8157 14.1663 15.3595 13.7137 15.722C12.8441 16.3865 11.8435 17.6432 11.4981 18.5131C11.1526 19.371 10.9263 20.096 10.9144 20.3498C10.9144 21.0264 10.7596 21.0989 9.49691 21.0989C7.9841 21.0989 7.88881 21.1835 7.82925 22.6576C7.80543 23.2497 7.73396 23.733 7.65057 23.7813C7.5791 23.8297 6.24498 23.878 4.68453 23.878C1.59937 23.878 1.27775 23.9384 0.789368 24.5788C0.241424 25.2796 0.61069 26.5363 1.50408 27.0679C1.89717 27.3096 2.15923 27.3217 6.38792 27.3821L10.8549 27.4425L10.9382 29.6175C10.974 30.8137 11.0097 34.2694 11.0097 37.2902C10.9978 43.2955 10.9859 43.235 11.6887 43.7909C12.3557 44.3225 12.7012 44.3467 22.5284 44.2621C27.6386 44.2258 32.0341 44.2258 32.2842 44.2742C32.5344 44.3225 32.7845 44.4433 32.8322 44.54C32.8917 44.6367 33.118 45.1321 33.3563 45.6396C33.6779 46.3404 33.9638 46.7391 34.5117 47.2466L35.2264 47.9233L34.7142 47.9353C34.4283 47.9353 28.1151 47.9353 20.6702 47.9233C7.13837 47.8991 7.13837 47.8991 6.63807 48.1528C5.54218 48.7328 5.36351 50.1465 6.29263 51.0286C6.9716 51.669 7.07881 51.6811 12.7488 51.6932C16.37 51.6932 18.1091 51.6569 18.3355 51.5603C18.7405 51.4032 20.968 51.379 21.2539 51.5361C21.3611 51.5965 23.3265 51.6811 25.6017 51.7294L29.747 51.8261L30.6046 52.6719C32.3557 54.3998 33.9757 55.8135 34.5594 56.1035C34.8929 56.2606 35.3217 56.5143 35.5361 56.6714C35.7506 56.8285 36.1198 56.9855 36.3819 57.0218C36.6797 57.0822 36.9536 57.2272 37.1561 57.4689C37.3706 57.7105 37.5969 57.8314 37.8232 57.8314C38.3354 57.8314 38.9906 58.1576 39.2884 58.5563C39.4313 58.7617 39.6338 58.9188 39.7291 58.9309C39.8363 58.9309 40.0865 59.0397 40.277 59.1726C40.4795 59.3055 40.7416 59.4384 40.8726 59.4867C41.0037 59.523 41.504 59.7767 41.9804 60.0305C43.8744 61.0334 47.6266 61.9517 49.9613 61.9879L51.3193 62L51.6052 61.6375C51.76 61.4321 51.8911 61.2146 51.8911 61.1421C51.8911 61.0696 51.9983 60.8763 52.1174 60.7071C52.4747 60.248 52.5343 59.6438 52.2603 59.1967C51.9625 58.7134 51.5575 58.4959 50.5808 58.3388C47.4241 57.8072 46.6499 57.6501 45.7803 57.3843C44.2675 56.9251 41.3372 55.7168 40.1937 55.0764C38.3354 54.0614 35.7386 52.0677 35.965 51.8261C36.1675 51.6207 40.1103 51.5844 55.1549 51.6207C66.4235 51.6448 70.545 51.6932 70.6403 51.8019C70.7356 51.8986 70.6998 51.9832 70.5092 52.1161C70.3544 52.2248 70.2353 52.3698 70.2353 52.4665C70.2353 52.5511 69.7707 52.9377 69.1989 53.3244C68.6391 53.711 68.0078 54.1339 67.8052 54.2789C66.6022 55.1006 65.2799 55.7531 63.0882 56.5868C62.1352 56.9493 61.1823 57.348 60.9679 57.4809C60.7296 57.6139 60.3484 57.7105 60.0149 57.7105C59.4074 57.7105 58.9786 57.9401 58.5617 58.4718C58.3473 58.7497 58.2996 58.9792 58.2758 59.8371L58.2639 60.8642L58.7404 61.1179C59.0024 61.2509 59.3121 61.42 59.4432 61.4804C59.7171 61.6254 60.3484 61.5288 61.7183 61.13C64.601 60.3084 66.9833 59.3055 68.2698 58.3751C68.4723 58.2301 68.8297 58.0126 69.0798 57.8918C69.318 57.7589 69.5205 57.6139 69.5205 57.5776C69.5205 57.5293 69.6635 57.4568 69.8422 57.4084C70.0208 57.3722 70.3186 57.2151 70.5211 57.0701C70.7236 56.9251 71.0572 56.7197 71.2716 56.623C71.7481 56.4056 72.8916 55.3543 74.8809 53.3485L76.3937 51.8261L77.5134 51.7536C78.1328 51.7173 79.6099 51.6811 80.801 51.6811C82.1233 51.6811 83.0524 51.6328 83.2072 51.5603C83.505 51.3911 84.0053 51.3911 84.2912 51.5482C84.4222 51.6207 85.53 51.669 86.8999 51.6811C89.0559 51.6811 89.318 51.6569 89.7468 51.4394C91.0571 50.7628 91.212 48.9866 90.0327 48.3099C89.6158 48.0803 89.3656 48.0562 86.0184 47.9958C84.053 47.9595 80.944 47.9353 79.1096 47.9353L75.7862 47.9233L76.2031 47.4641C76.7987 46.8358 77.0607 46.425 77.5015 45.3858C77.7159 44.8904 77.9541 44.4433 78.0256 44.395C78.0971 44.3467 78.5497 44.2983 79.0262 44.2983C79.9315 44.2983 80.5628 44.0809 80.9797 43.6096C81.2894 43.2592 81.8016 42.0147 81.9088 41.338C82.1113 40.1539 82.3734 38.9697 82.5283 38.6556L82.6831 38.3414L87.9243 38.3052C90.807 38.281 93.3799 38.2327 93.6539 38.1964C94.3686 38.0997 94.9046 37.4956 94.988 36.7102C95.0476 35.9731 94.8093 35.4656 94.178 35.0427L93.7134 34.7286L88.234 34.7407C83.9338 34.7527 82.7308 34.7286 82.6236 34.6077C82.2066 34.1003 81.7897 33.4961 81.7897 33.3994C81.7897 33.3269 81.6706 33.1095 81.5277 32.904C81.1941 32.4328 80.8368 31.7199 80.8368 31.5387C80.8368 31.4541 80.4794 30.717 80.0506 29.8954C79.2763 28.4454 77.5015 25.0017 75.3216 20.7364C74.726 19.5764 74.0709 18.344 73.8565 18.0177C72.9869 16.6524 71.2358 15.3716 69.5205 14.8399C68.6629 14.5741 67.3288 14.4532 65.2561 14.4532H63.1239L62.6951 13.7524C62.159 12.8583 61.2299 11.9762 60.6343 11.7829C60.3008 11.6741 59.0024 11.6137 56.1436 11.5896C51.4146 11.5291 51.1287 11.5775 50.3902 12.4354C50.0924 12.7858 49.878 13.1966 49.7588 13.6799L49.5683 14.3928L44.3628 14.4291L39.1573 14.4532L38.8238 14.0062C38.2759 13.257 37.2872 12.3145 36.7988 12.0608C36.2032 11.7466 35.2503 11.5533 34.3807 11.5533C33.9519 11.5533 33.666 11.505 33.666 11.4204C33.666 11.2271 34.4522 10.5021 35.7625 9.49919C36.4057 9.01587 37.0728 8.48422 37.2395 8.33922C37.7398 7.90423 40.3009 6.52676 41.7065 5.9347C46.0424 4.11016 50.0209 3.40934 54.3925 3.68725C57.1084 3.85641 58.1686 4.07391 61.1823 5.04055C64.0054 5.94678 68.1269 8.10964 69.5205 9.40253C69.6873 9.55961 69.9851 9.81335 70.1757 9.95835C70.3782 10.1154 71.2358 10.9371 72.0816 11.7829C73.7373 13.4262 73.9994 13.5833 74.8094 13.3537C76.0244 13.0154 76.6915 11.5291 76.084 10.5142C75.7266 9.91002 73.6301 7.74715 72.3794 6.69593C69.6278 4.35182 66.8999 2.8656 63.1477 1.64522C58.9786 0.291916 54.869 -0.203487 50.283 0.0744209ZM53.654 18.1507L53.9161 18.199L53.8922 23.6726L53.8565 29.1341L49.8065 29.1704C47.579 29.1825 45.6493 29.1704 45.5063 29.1462C45.3753 29.11 45.2562 29.0133 45.2562 28.9287C45.2443 28.8441 45.2085 27.9137 45.149 26.8625C45.0537 24.6513 44.9226 24.9413 46.6499 23.4793C47.2097 23.008 47.9006 22.3555 48.2103 22.0414C48.5081 21.7272 48.8297 21.4614 48.9369 21.4614C49.0441 21.4614 49.1513 21.3768 49.199 21.2802C49.2586 21.1231 47.2931 21.0989 31.9745 21.0989H14.6905L14.7738 20.6035C14.9644 19.4314 16.2747 18.2111 17.5255 18.0419C18.0377 17.9815 53.3205 18.0782 53.654 18.1507ZM67.7338 18.3077C68.4723 18.5252 69.1275 18.8756 69.7469 19.3831C70.3067 19.8423 70.95 20.676 70.95 20.9418C70.95 21.0747 69.8422 21.0989 64.3151 21.0747L57.6683 21.0385L57.6326 19.6248L57.5968 18.2111L58.8237 18.1748C62.171 18.0782 67.2216 18.1507 67.7338 18.3077ZM25.6612 24.6755C25.7684 24.6997 25.8042 25.2917 25.8042 27.0679C25.8042 29.7745 25.8995 30.2337 26.6618 31.1641C27.2217 31.8407 27.9364 32.2878 28.6035 32.3845C28.8655 32.4207 34.4998 32.4811 41.1109 32.5174C47.7338 32.5536 53.3205 32.6261 53.5349 32.6624C53.9995 32.747 54.059 32.9161 54.0114 34.209L53.9756 35.1757L49.8661 35.2361C47.6028 35.2723 41.5397 35.2723 36.3819 35.2361L27.0192 35.1757L26.6142 34.8857C26.3998 34.7165 25.7446 34.1728 25.149 33.6774C24.5654 33.1699 23.672 32.4328 23.1836 32.0341C22.6952 31.6353 21.9209 30.9949 21.4564 30.6083C19.8006 29.1945 20.015 29.267 17.2039 29.1945C15.8578 29.1583 14.7143 29.0979 14.6666 29.0495C14.5594 28.9408 14.4403 25.3159 14.5356 24.9292C14.6071 24.6151 14.619 24.6151 15.8936 24.5788C17.5136 24.5305 25.4587 24.603 25.6612 24.6755ZM41.3968 24.7722C41.492 24.8809 41.5278 25.5938 41.504 27.0317L41.4682 29.1341L35.6195 29.1704C30.426 29.1945 29.747 29.1704 29.616 29.0012C29.3896 28.7354 29.2824 25.038 29.4968 24.7842C29.6279 24.6272 30.4141 24.603 35.4528 24.603C40.2532 24.603 41.2895 24.6272 41.3968 24.7722ZM72.5342 24.7117C72.8082 24.8205 73.642 26.1255 74.7379 28.1312C75.3812 29.2912 75.7623 29.2066 70.4497 29.1704L65.7683 29.1341L65.7326 27.0317C65.7088 25.5938 65.7445 24.8809 65.8398 24.7722C65.947 24.6392 66.5902 24.603 69.1155 24.603C70.8308 24.603 72.3794 24.6513 72.5342 24.7117ZM61.9327 24.8084C61.9685 24.8688 62.0042 28.4937 62.028 32.8799L62.0638 40.8547H59.872H57.6802L57.5968 40.5526C57.4896 40.1539 57.4658 31.7562 57.573 27.8292L57.6445 24.7238H59.7648C60.9321 24.7238 61.9089 24.7601 61.9327 24.8084ZM76.6319 32.6382C76.9535 32.6986 77.0965 32.8557 77.6682 33.8224C78.0256 34.4386 78.3591 35.0427 78.4068 35.1636C78.4902 35.369 78.1924 35.3811 72.2126 35.3327C66.8999 35.2844 65.9113 35.2602 65.816 35.1032C65.6492 34.8373 65.6849 33.0249 65.8636 32.7832C65.9589 32.6503 66.221 32.5778 66.7213 32.5536C67.8886 32.4932 76.215 32.5657 76.6319 32.6382ZM18.538 33.1819C18.8358 33.4115 20.5034 34.7527 22.2545 36.1665L25.4349 38.7401L31.4266 38.7643L37.4182 38.8006L37.7756 39.5376C38.3116 40.6493 38.5022 40.8909 38.931 40.9755C39.4551 41.0963 39.8125 41.3501 40.0865 41.8092C40.6225 42.7155 40.4915 43.7063 39.7291 44.4433C39.3003 44.8662 39.1931 44.9025 38.5975 44.9025C37.8232 44.9025 37.1323 44.5883 36.775 44.0688C36.4057 43.5371 36.4295 42.4013 36.8226 41.7609C37.18 41.193 37.1681 41.2293 36.9298 40.9876C36.7631 40.8184 36.1317 40.7943 31.7363 40.7943H26.7333L25.4111 39.743C24.6726 39.1631 23.1359 37.9306 21.9924 36.9881L19.9197 35.2965L17.2872 35.2361L14.6666 35.1757V34.0278V32.8799L15.0835 32.7953C15.3099 32.759 16.0603 32.7349 16.7512 32.7349C18.0019 32.759 18.0139 32.759 18.538 33.1819ZM73.2609 41.3138C74.1185 41.8092 74.4997 43.1867 74.047 44.1171C73.7731 44.6608 72.9511 45.0475 72.165 44.9871C71.4622 44.9387 71.0453 44.685 70.6164 44.0446C70.3782 43.6942 70.3425 43.525 70.3901 42.9571C70.4616 42.0872 70.6641 41.6642 71.1763 41.3138C71.7242 40.9393 72.6176 40.9393 73.2609 41.3138ZM66.626 44.4433C66.6974 44.5279 66.8166 44.8179 66.8999 45.0837C67.1858 45.99 67.841 46.8841 68.8058 47.6695L69.1036 47.9112L55.5599 47.9233C48.1031 47.9233 42.0043 47.8991 42.0043 47.8628C42.0043 47.8266 42.1829 47.6333 42.4093 47.4158C42.7666 47.0654 43.5528 45.7604 43.5528 45.5067C43.5528 45.4583 43.66 45.1683 43.791 44.8542L44.0412 44.2983H55.274C64.1245 44.2983 66.5426 44.3346 66.626 44.4433Z" fill="white"/>
</svg>
