<svg width="16" height="16" viewBox="0 0 16 16" fill="none" xmlns="http://www.w3.org/2000/svg">
<g clip-path="url(#clip0_161_7816)">
<path d="M10.348 7.64272C10.348 6.53072 10.836 5.88872 11.666 5.88872C12.348 5.88872 12.805 6.35872 12.853 6.99672H14V6.88672C13.947 5.69972 12.976 4.88672 11.658 4.88672C10.054 4.88672 9.14 5.93672 9.14 7.63772V8.38472C9.14 10.0847 10.045 11.1147 11.658 11.1147C12.972 11.1147 13.943 10.3227 14 9.17572V9.06172H12.853C12.805 9.67672 12.356 10.1117 11.666 10.1117C10.827 10.1117 10.348 9.49172 10.348 8.38472V7.64272ZM4.457 10.9997L5.477 6.81572H5.522L6.542 10.9997H7.548L9 5.00072H7.818L6.998 9.35572H6.942L5.97 5.00072H5.03L4.058 9.35572H4.005L3.178 5.00072H2L3.452 10.9997H4.457Z" fill="#222222"/>
<path d="M14 3C14.2652 3 14.5196 3.10536 14.7071 3.29289C14.8946 3.48043 15 3.73478 15 4V12C15 12.2652 14.8946 12.5196 14.7071 12.7071C14.5196 12.8946 14.2652 13 14 13H2C1.73478 13 1.48043 12.8946 1.29289 12.7071C1.10536 12.5196 1 12.2652 1 12V4C1 3.73478 1.10536 3.48043 1.29289 3.29289C1.48043 3.10536 1.73478 3 2 3H14ZM2 2C1.46957 2 0.960859 2.21071 0.585786 2.58579C0.210714 2.96086 0 3.46957 0 4L0 12C0 12.5304 0.210714 13.0391 0.585786 13.4142C0.960859 13.7893 1.46957 14 2 14H14C14.5304 14 15.0391 13.7893 15.4142 13.4142C15.7893 13.0391 16 12.5304 16 12V4C16 3.46957 15.7893 2.96086 15.4142 2.58579C15.0391 2.21071 14.5304 2 14 2H2Z" fill="#222222"/>
</g>
<defs>
<clipPath id="clip0_161_7816">
<rect width="16" height="16" fill="white"/>
</clipPath>
</defs>
</svg>
